<svg width="3442" height="688" viewBox="0 0 3442 688" fill="none" xmlns="http://www.w3.org/2000/svg">
<path d="M431.049 250.41H61.582V311.988H431.049V250.41Z" fill="#27A8FF"/>
<path d="M431.049 188.828H61.582V250.406H431.049V188.828Z" fill="#FFB800"/>
<path d="M369.475 127.246H123.164V188.824H369.475V127.246Z" fill="#FF6428"/>
<path d="M307.906 65.6777H184.75V127.256H307.906V65.6777Z" fill="#9B00AF"/>
<path d="M307.906 4.0957H184.75V65.6735H307.906V4.0957Z" fill="#2A205E"/>
<path d="M431.074 558.297H369.496V619.875H431.074V558.297Z" fill="#2A205E"/>
<path d="M123.183 558.309H61.6055V619.886H123.183V558.309Z" fill="#2A205E"/>
<path d="M0 311.992V373.57V558.303H61.5778V373.57H431.044V558.303H492.622V373.57V311.992H0Z" fill="#2A205E"/>
<path d="M369.452 619.865H123.141V681.443H369.452V619.865Z" fill="#2A205E"/>
<g clip-path="url(#clip0_396_640)">
<path d="M731.969 685.989V584.278H695.754V570.754H785.905V584.278H749.468V685.989H731.969Z" fill="#2A205E"/>
<path d="M839.121 685.989V570.754H916.48V584.278H856.62V621.162H911.22V634.351H856.62V672.52H916.48V686.045H839.121V685.989Z" fill="#2A205E"/>
<path d="M1028.56 688C1016.65 688 1006.3 685.485 997.548 680.512C988.799 675.538 982.098 668.552 977.391 659.611C972.74 650.669 970.414 640.274 970.414 628.427C970.414 616.579 972.74 606.296 977.391 597.299C982.043 588.301 988.799 581.316 997.548 576.342C1006.3 571.368 1016.65 568.854 1028.56 568.854C1042.79 568.854 1054.42 572.095 1063.5 578.577C1072.53 585.06 1078.23 594.169 1080.56 605.905H1061.12C1059.35 599.087 1055.8 593.666 1050.43 589.587C1045.06 585.507 1037.69 583.495 1028.39 583.495C1020.09 583.495 1013 585.284 1007.02 588.916C1001.09 592.549 996.44 597.69 993.173 604.396C989.906 611.103 988.3 619.094 988.3 628.427C988.3 637.76 989.906 645.807 993.173 652.513C996.44 659.275 1001.04 664.417 1007.02 667.993C1013 671.57 1020.09 673.358 1028.39 673.358C1037.75 673.358 1045.06 671.402 1050.43 667.546C1055.8 663.634 1059.35 658.381 1061.12 651.675H1080.56C1078.23 663.076 1072.53 672.017 1063.5 678.444C1054.47 684.871 1042.79 688.056 1028.56 688.056V688Z" fill="#2A205E"/>
<path d="M1137.09 685.989V570.754H1154.59L1217.11 659.164V570.754H1234.61V685.989H1217.11L1154.59 597.746V685.989H1137.09Z" fill="#2A205E"/>
<path d="M1351.06 687.999C1339.27 687.999 1328.97 685.484 1320.05 680.51C1311.19 675.537 1304.22 668.551 1299.12 659.609C1294.03 650.668 1291.48 640.273 1291.48 628.426C1291.48 616.578 1294.03 606.351 1299.12 597.41C1304.22 588.468 1311.19 581.482 1320.05 576.453C1328.91 571.423 1339.27 568.908 1351.06 568.908C1362.86 568.908 1373.44 571.423 1382.46 576.453C1391.49 581.482 1398.52 588.468 1403.45 597.41C1408.43 606.351 1410.87 616.69 1410.87 628.426C1410.87 640.161 1408.38 650.668 1403.45 659.609C1398.47 668.551 1391.49 675.537 1382.46 680.51C1373.44 685.484 1362.91 687.999 1351.06 687.999ZM1351.06 673.357C1359.59 673.357 1367.01 671.569 1373.27 667.936C1379.53 664.304 1384.46 659.162 1387.89 652.456C1391.32 645.75 1393.04 637.758 1393.04 628.426C1393.04 619.093 1391.32 611.101 1387.89 604.395C1384.46 597.689 1379.58 592.548 1373.27 589.027C1366.96 585.506 1359.54 583.662 1351.06 583.662C1342.59 583.662 1335.5 585.45 1329.25 589.027C1322.99 592.603 1318.12 597.745 1314.63 604.395C1311.14 611.101 1309.37 619.093 1309.37 628.426C1309.37 637.758 1311.14 645.75 1314.63 652.456C1318.12 659.162 1322.99 664.304 1329.25 667.936C1335.5 671.569 1342.76 673.357 1351.06 673.357Z" fill="#2A205E"/>
<path d="M1467.63 685.989V570.754H1485.13V672.968H1541.17V685.989H1467.63Z" fill="#2A205E"/>
<path d="M1641.34 687.999C1629.55 687.999 1619.25 685.484 1610.33 680.51C1601.47 675.537 1594.49 668.551 1589.4 659.609C1584.31 650.668 1581.76 640.273 1581.76 628.426C1581.76 616.578 1584.31 606.351 1589.4 597.41C1594.49 588.468 1601.47 581.482 1610.33 576.453C1619.19 571.423 1629.55 568.908 1641.34 568.908C1653.14 568.908 1663.71 571.423 1672.74 576.453C1681.77 581.482 1688.8 588.468 1693.73 597.41C1698.71 606.351 1701.15 616.69 1701.15 628.426C1701.15 640.161 1698.65 650.668 1693.73 659.609C1688.74 668.551 1681.77 675.537 1672.74 680.51C1663.71 685.484 1653.19 687.999 1641.34 687.999ZM1641.34 673.357C1649.87 673.357 1657.29 671.569 1663.55 667.936C1669.8 664.304 1674.73 659.162 1678.17 652.456C1681.6 645.75 1683.32 637.758 1683.32 628.426C1683.32 619.093 1681.6 611.101 1678.17 604.395C1674.73 597.689 1669.86 592.548 1663.55 589.027C1657.23 585.506 1649.81 583.662 1641.34 583.662C1632.87 583.662 1625.78 585.45 1619.52 589.027C1613.27 592.603 1608.39 597.745 1604.9 604.395C1601.42 611.101 1599.64 619.093 1599.64 628.426C1599.64 637.758 1601.42 645.75 1604.9 652.456C1608.39 659.162 1613.27 664.304 1619.52 667.936C1625.78 671.569 1633.04 673.357 1641.34 673.357Z" fill="#2A205E"/>
<path d="M1810.96 687.999C1799.38 687.999 1789.3 685.541 1780.67 680.567C1772.03 675.593 1765.33 668.719 1760.62 659.833C1755.91 650.948 1753.53 640.553 1753.53 628.706C1753.53 616.858 1755.97 606.575 1760.79 597.578C1765.6 588.58 1772.52 581.539 1781.55 576.453C1790.52 571.368 1801.21 568.797 1813.61 568.797C1827.62 568.797 1839.31 571.926 1848.61 578.241C1857.97 584.556 1863.95 593.274 1866.66 604.507H1846.51C1844.73 598.136 1841.08 593.107 1835.49 589.418C1829.89 585.73 1822.53 583.886 1813.45 583.886C1804.81 583.886 1797.33 585.674 1791.02 589.307C1784.71 592.939 1779.89 598.081 1776.51 604.787C1773.13 611.493 1771.42 619.429 1771.42 628.65C1771.42 637.871 1773.08 645.974 1776.4 652.68C1779.72 659.386 1784.49 664.472 1790.69 667.993C1796.89 671.513 1803.98 673.246 1812.06 673.246C1824.41 673.246 1833.77 669.893 1840.08 663.187C1846.4 656.48 1849.99 647.539 1850.94 636.362H1817.16V623.676H1868.82V685.876H1852.71L1851.32 668.272C1848.39 672.575 1845.12 676.152 1841.41 679.058C1837.76 681.964 1833.44 684.143 1828.56 685.652C1823.69 687.161 1817.82 687.888 1811.07 687.888L1810.96 687.999Z" fill="#2A205E"/>
<path d="M1918.44 563.71L1916.67 552.198L1952.88 531.465L1955.15 544.989L1918.38 563.766L1918.44 563.71ZM1927.36 685.987V570.752H1944.85V685.987H1927.36Z" fill="#2A205E"/>
<path d="M2088.61 685.989H2107.32L2062.36 570.754H2043.25L1998.29 685.989H2016.67L2027.42 657.543H2077.92L2088.61 685.989ZM2032.4 644.354L2052.72 590.537L2072.93 644.354H2032.34H2032.4Z" fill="#2A205E"/>
<path d="M2241.27 685.989V570.754H2318.63V584.278H2258.77V621.162H2313.37V634.351H2258.77V672.52H2318.63V686.045H2241.27V685.989Z" fill="#2A205E"/>
<path d="M2376.95 685.989V570.754H2414.6C2428.83 570.754 2440.63 573.101 2449.99 577.851C2459.34 582.546 2466.21 589.252 2470.75 597.858C2475.24 606.464 2477.51 616.691 2477.51 628.539C2477.51 640.387 2475.24 650.614 2470.75 659.164C2466.27 667.714 2459.34 674.309 2449.99 679.003C2440.63 683.642 2428.83 685.989 2414.6 685.989H2376.95ZM2394.44 672.185H2413.88C2425.07 672.185 2434.04 670.453 2440.74 666.932C2447.44 663.411 2452.26 658.382 2455.08 651.899C2457.96 645.36 2459.34 637.592 2459.34 628.595C2459.34 619.597 2457.9 611.662 2455.08 605.067C2452.2 598.473 2447.44 593.443 2440.74 589.922C2434.04 586.402 2425.07 584.669 2413.88 584.669H2394.44V672.241V672.185Z" fill="#2A205E"/>
<path d="M2579.34 687.999C2570.81 687.999 2563.06 686.379 2556.08 683.137C2549.1 679.896 2543.51 674.978 2539.36 668.328C2535.21 661.678 2533.16 653.239 2533.16 642.9V570.809H2550.65V643.068C2550.65 649.998 2551.87 655.642 2554.25 660.113C2556.64 664.528 2560.07 667.825 2564.5 670.004C2568.93 672.184 2574.02 673.19 2579.73 673.19C2585.43 673.19 2590.8 672.128 2595.12 670.004C2599.44 667.881 2602.82 664.584 2605.2 660.113C2607.58 655.642 2608.8 649.998 2608.8 643.068V570.809H2626.3V642.9C2626.3 653.239 2624.19 661.678 2619.98 668.328C2615.78 674.978 2610.13 679.896 2603.1 683.137C2596.01 686.379 2588.14 687.999 2579.39 687.999H2579.34Z" fill="#2A205E"/>
<path d="M2739.87 688C2727.97 688 2717.61 685.485 2708.86 680.512C2700.11 675.538 2693.41 668.552 2688.71 659.611C2684.06 650.669 2681.73 640.274 2681.73 628.427C2681.73 616.579 2684.06 606.296 2688.71 597.299C2693.36 588.301 2700.11 581.316 2708.86 576.342C2717.61 571.368 2727.97 568.854 2739.87 568.854C2754.11 568.854 2765.73 572.095 2774.82 578.577C2783.84 585.06 2789.55 594.169 2791.87 605.905H2772.43C2770.66 599.087 2767.12 593.666 2761.75 589.587C2756.38 585.507 2749.01 583.495 2739.71 583.495C2731.4 583.495 2724.31 585.284 2718.33 588.916C2712.41 592.549 2707.76 597.69 2704.49 604.396C2701.22 611.103 2699.62 619.094 2699.62 628.427C2699.62 637.76 2701.22 645.807 2704.49 652.513C2707.76 659.275 2712.35 664.417 2718.33 667.993C2724.31 671.57 2731.4 673.358 2739.71 673.358C2749.07 673.358 2756.38 671.402 2761.75 667.546C2767.12 663.634 2770.66 658.381 2772.43 651.675H2791.87C2789.55 663.076 2783.84 672.017 2774.82 678.444C2765.79 684.871 2754.11 688.056 2739.87 688.056V688Z" fill="#2A205E"/>
<path d="M2928.43 685.989H2947.14L2902.18 570.754H2883.07L2838.11 685.989H2856.49L2867.24 657.543H2917.74L2928.43 685.989ZM2872.22 644.354L2892.54 590.537L2912.76 644.354H2872.17H2872.22Z" fill="#2A205E"/>
<path d="M3015.59 685.989V584.278H2979.37V570.754H3069.52V584.278H3033.08V685.989H3015.59Z" fill="#2A205E"/>
<path d="M3122.74 685.989V570.754H3140.24V685.989H3122.74Z" fill="#2A205E"/>
<path d="M3237.92 685.989L3192.23 570.754H3211.12L3248.22 668.832L3285.71 570.754H3304.26L3258.74 685.989H3237.92Z" fill="#2A205E"/>
<path d="M3422.48 685.989H3441.2L3396.24 570.754H3377.13L3332.17 685.989H3350.55L3361.3 657.543H3411.8L3422.48 685.989ZM3366.28 644.354L3386.6 590.537L3406.81 644.354H3366.22H3366.28Z" fill="#2A205E"/>
<path fill-rule="evenodd" clip-rule="evenodd" d="M953.138 0V86.5658H781.53V173.132H953.138V259.697H781.53V346.263H953.138V432.829H695.754V0H953.138ZM1317.78 43.3108L1274.87 0H1017.48V432.941H1274.87L1317.78 389.63V43.3108ZM1232.01 346.375H1103.32V86.5658H1232.01V346.319V346.375ZM1596.65 346.375V0H1682.43V432.941H1382.13V0H1467.91V346.319H1596.6L1596.65 346.375ZM1832.55 86.5658H2025.59V0H1746.78V432.941H2025.59V346.375H1832.55V86.5658ZM3119.47 432.885H2819.17V0H3119.47V432.941V432.885ZM3033.69 259.697V86.5658H2905V346.319H3033.69V259.753V259.697ZM3183.82 0H3441.2V86.5658H3355.42V432.885H3269.65V86.5658H3183.87V0H3183.82ZM2089.94 0V432.941H2175.71V259.753H2304.4V432.941H2390.18V0H2089.88H2089.94ZM2304.4 173.187H2175.71V86.5658H2304.4V173.132V173.187ZM2754.83 173.187L2711.91 216.498L2754.83 259.809V432.997H2454.53V0H2754.83V173.187ZM2626.13 346.375H2669.05V259.809H2540.36V346.375H2626.13ZM2626.13 173.187H2669.05V86.5658H2540.36V173.132H2626.13V173.187Z" fill="#2A205E"/>
</g>
<defs>
<clipPath id="clip0_396_640">
<rect width="2745.45" height="688" fill="white" transform="translate(695.754)"/>
</clipPath>
</defs>
</svg>
